<svg width="32" height="32" viewBox="0 0 32 32" fill="none" xmlns="http://www.w3.org/2000/svg">
<path fill-rule="evenodd" clip-rule="evenodd" d="M31.5714 5.2381H0.428571C0.191878 5.2381 0 5.04622 0 4.80953V3.09524C0 2.85855 0.191878 2.66667 0.428571 2.66667H31.5714C31.8081 2.66667 32 2.85855 32 3.09524V4.80953C32 5.04622 31.8081 5.2381 31.5714 5.2381ZM31.5714 16.6667H0.428571C0.191878 16.6667 0 16.4748 0 16.2381V14.5238C0 14.2871 0.191878 14.0952 0.428571 14.0952H31.5714C31.8081 14.0952 32 14.2871 32 14.5238V16.2381C32 16.4748 31.8081 16.6667 31.5714 16.6667ZM0.428571 28.0952H31.5714C31.8081 28.0952 32 27.9034 32 27.6667V25.9524C32 25.7157 31.8081 25.5238 31.5714 25.5238H0.428571C0.191878 25.5238 0 25.7157 0 25.9524V27.6667C0 27.9034 0.191878 28.0952 0.428571 28.0952Z" fill="black"/>
</svg>
